<svg width="25" height="24" viewBox="0 0 25 24" fill="none" xmlns="http://www.w3.org/2000/svg">
<path d="M18.531 16.6168L22.8137 20.8995L21.3995 22.3137L17.1168 18.031C15.5769 19.263 13.624 20 11.5 20C6.532 20 2.5 15.968 2.5 11C2.5 6.032 6.532 2 11.5 2C16.468 2 20.5 6.032 20.5 11C20.5 13.124 19.763 15.0769 18.531 16.6168ZM16.5247 15.8748C17.7475 14.6146 18.5 12.8956 18.5 11C18.5 7.1325 15.3675 4 11.5 4C7.6325 4 4.5 7.1325 4.5 11C4.5 14.8675 7.6325 18 11.5 18C13.3956 18 15.1146 17.2475 16.3748 16.0247L16.5247 15.8748Z" fill="#65748C"/>
</svg>
